<svg xmlns="http://www.w3.org/2000/svg" width="1024" height="1024" viewBox="0 0 1024 1024" version="1.1">
  <defs>
    <linearGradient id="0" x1="0.5" y1="0" x2="0.5" y2="1">
      <stop offset="48%" stop-color="#754ff7"/>
      <stop offset="61%" stop-color="#6469f7"/>
      <stop offset="74%" stop-color="#567ef7"/>
      <stop offset="100%" stop-color="#479ff8"/>
    </linearGradient>
  </defs>
  <path d="M 491.500 220.436 C 489.850 221.136, 425.612 246.144, 348.750 276.009 L 209 330.309 209.138 370.905 C 209.214 393.232, 209.551 420.716, 209.888 431.980 L 210.500 452.459 261.541 473.980 C 348.373 510.591, 354.952 513.448, 354.185 514.215 C 353.209 515.191, 340.145 520.386, 284 542.123 C 258.425 552.025, 234.800 561.183, 231.500 562.475 C 228.200 563.766, 221.784 566.247, 217.242 567.987 L 208.985 571.151 209.242 632.114 L 209.500 693.077 264.500 717.613 C 343.149 752.698, 454.245 801.862, 476.609 811.478 L 495.718 819.695 496.354 810.098 C 496.704 804.819, 496.981 778.225, 496.971 751 L 496.952 701.500 482.726 695.076 C 468.987 688.871, 442.249 676.624, 393 653.978 C 380.075 648.035, 365.714 641.341, 361.088 639.103 L 352.675 635.034 356.588 633.415 C 358.739 632.525, 364.550 630.106, 369.500 628.039 C 385.972 621.161, 427.646 604.251, 475.089 585.195 L 496.678 576.524 497.331 519.554 C 497.690 488.220, 497.650 462.292, 497.242 461.936 C 496.834 461.580, 483.225 455.301, 467 447.983 C 441.210 436.350, 392.419 414.062, 365.721 401.718 C 360.892 399.485, 357.292 397.324, 357.721 396.915 C 358.149 396.506, 363.675 394.158, 370 391.698 C 376.325 389.237, 404.900 378.101, 433.500 366.951 C 462.100 355.801, 487.807 345.807, 490.627 344.743 C 495.571 342.877, 495.777 342.646, 496.377 338.264 C 496.720 335.765, 497 307.909, 497 276.360 C 497 231.095, 496.736 219.017, 495.750 219.082 C 495.063 219.126, 493.150 219.736, 491.500 220.436 M 522.007 274.133 C 522.011 304.585, 522.296 332.485, 522.641 336.133 L 523.267 342.766 589.384 368.502 C 625.748 382.656, 657.075 394.891, 659 395.690 L 662.500 397.143 659.500 398.741 C 654.863 401.210, 617.063 418.551, 567.258 441.057 L 522.016 461.500 522.008 518.786 L 522 576.071 526.750 578.115 C 529.362 579.240, 549.950 587.605, 572.500 596.704 C 638.411 623.302, 664.386 633.986, 665.260 634.860 C 665.710 635.310, 662.573 637.277, 658.289 639.232 C 629.019 652.585, 538.801 693.915, 531.100 697.498 L 521.700 701.872 521.853 735.186 C 522.089 786.542, 523.103 820.180, 524.399 819.649 C 526.710 818.704, 615.416 779.544, 710.500 737.494 C 764.950 713.414, 810.063 693.272, 810.750 692.734 C 811.726 691.970, 811.994 678.567, 811.974 631.628 L 811.947 571.500 780.724 559.617 C 749.312 547.663, 734.499 541.953, 699.500 528.304 C 668.043 516.036, 665 514.777, 665 514.021 C 665 513.158, 687.909 503.417, 793.258 459.483 L 812.015 451.661 811.758 390.741 L 811.500 329.821 767.500 312.871 C 591.071 244.907, 525.268 219.627, 523.750 219.227 C 522.099 218.793, 522 221.892, 522.007 274.133" stroke="none" fill="#fbfbfc" fill-rule="evenodd"/>
  <path d="M 485.500 64.634 C 385.738 71.290, 294.713 107.463, 219 170.541 C 206.489 180.965, 175.041 211.887, 164.086 224.539 C 141.023 251.172, 116.436 288.220, 101.078 319.480 C 75.694 371.144, 59.841 429.193, 54.917 488.500 C 53.185 509.371, 54.280 559.357, 56.889 578.500 C 64.817 636.671, 78.228 680.877, 102.546 729 C 125.147 773.726, 150.187 808.786, 184.881 844.283 C 231.930 892.420, 283.499 926.769, 344.975 950.918 C 400.053 972.555, 452.135 982.347, 512 982.322 C 572.101 982.297, 623.974 972.544, 679.025 950.918 C 740.501 926.769, 792.070 892.420, 839.119 844.283 C 873.813 808.786, 898.853 773.726, 921.454 729 C 945.772 680.877, 959.183 636.671, 967.111 578.500 C 969.720 559.357, 970.815 509.371, 969.083 488.500 C 964.159 429.193, 948.306 371.144, 922.922 319.480 C 907.564 288.220, 882.977 251.172, 859.914 224.539 C 848.959 211.887, 817.511 180.965, 805 170.541 C 734.736 112.002, 650.951 76.475, 559.500 66.441 C 546.061 64.967, 498.078 63.795, 485.500 64.634 M 491.500 220.436 C 489.850 221.136, 425.612 246.144, 348.750 276.009 L 209 330.309 209.138 370.905 C 209.214 393.232, 209.551 420.716, 209.888 431.980 L 210.500 452.459 261.541 473.980 C 348.373 510.591, 354.952 513.448, 354.185 514.215 C 353.209 515.191, 340.145 520.386, 284 542.123 C 258.425 552.025, 234.800 561.183, 231.500 562.475 C 228.200 563.766, 221.784 566.247, 217.242 567.987 L 208.985 571.151 209.242 632.114 L 209.500 693.077 264.500 717.613 C 343.149 752.698, 454.245 801.862, 476.609 811.478 L 495.718 819.695 496.354 810.098 C 496.704 804.819, 496.981 778.225, 496.971 751 L 496.952 701.500 482.726 695.076 C 468.987 688.871, 442.249 676.624, 393 653.978 C 380.075 648.035, 365.714 641.341, 361.088 639.103 L 352.675 635.034 356.588 633.415 C 358.739 632.525, 364.550 630.106, 369.500 628.039 C 385.972 621.161, 427.646 604.251, 475.089 585.195 L 496.678 576.524 497.331 519.554 C 497.690 488.220, 497.650 462.292, 497.242 461.936 C 496.834 461.580, 483.225 455.301, 467 447.983 C 441.210 436.350, 392.419 414.062, 365.721 401.718 C 360.892 399.485, 357.292 397.324, 357.721 396.915 C 358.149 396.506, 363.675 394.158, 370 391.698 C 376.325 389.237, 404.900 378.101, 433.500 366.951 C 462.100 355.801, 487.807 345.807, 490.627 344.743 C 495.571 342.877, 495.777 342.646, 496.377 338.264 C 496.720 335.765, 497 307.909, 497 276.360 C 497 231.095, 496.736 219.017, 495.750 219.082 C 495.063 219.126, 493.150 219.736, 491.500 220.436 M 522.007 274.133 C 522.011 304.585, 522.296 332.485, 522.641 336.133 L 523.267 342.766 589.384 368.502 C 625.748 382.656, 657.075 394.891, 659 395.690 L 662.500 397.143 659.500 398.741 C 654.863 401.210, 617.063 418.551, 567.258 441.057 L 522.016 461.500 522.008 518.786 L 522 576.071 526.750 578.115 C 529.362 579.240, 549.950 587.605, 572.500 596.704 C 638.411 623.302, 664.386 633.986, 665.260 634.860 C 665.710 635.310, 662.573 637.277, 658.289 639.232 C 629.019 652.585, 538.801 693.915, 531.100 697.498 L 521.700 701.872 521.853 735.186 C 522.089 786.542, 523.103 820.180, 524.399 819.649 C 526.710 818.704, 615.416 779.544, 710.500 737.494 C 764.950 713.414, 810.063 693.272, 810.750 692.734 C 811.726 691.970, 811.994 678.567, 811.974 631.628 L 811.947 571.500 780.724 559.617 C 749.312 547.663, 734.499 541.953, 699.500 528.304 C 668.043 516.036, 665 514.777, 665 514.021 C 665 513.158, 687.909 503.417, 793.258 459.483 L 812.015 451.661 811.758 390.741 L 811.500 329.821 767.500 312.871 C 591.071 244.907, 525.268 219.627, 523.750 219.227 C 522.099 218.793, 522 221.892, 522.007 274.133" stroke="none" fill="url(#0)" fill-rule="evenodd"/>
</svg>